<svg width="196" height="172" viewBox="0 0 196 172" fill="none" xmlns="http://www.w3.org/2000/svg">
<g clip-path="url(#clip0_2_6)">
<path d="M69.4655 78.4315L73.6602 84.3678L79.5965 80.1732L69.1246 65.353L104.701 40.2147L115.173 55.0348L121.11 50.8402L116.915 44.9038L122.851 40.7092L116.574 31.8254L122.51 27.6308L118.316 21.6944L112.379 25.889L106.102 17.0053L100.166 21.1999L95.9712 15.2635L90.0348 19.4581L100.507 34.2783L64.93 59.4167L54.4581 44.5965L48.5218 48.7911L52.7164 54.7275L46.78 58.9221L53.0573 67.8059L47.1209 72.0005L51.3155 77.9369L57.2519 73.7423L63.5292 82.6261L69.4655 78.4315Z" fill="white"/>
</g>
<path d="M138.978 59.359V64.28H131.245V85H125.473V64.28H117.74V59.359H138.978ZM158.154 59.359H163.926V85H158.154V74.122H148.46V85H142.688V59.359H148.46V69.164H158.154V59.359ZM169.859 85V59.359H187.175V64.206H175.631V69.238H185.88V73.974H175.631V80.153H188.026V85H169.859Z" fill="black"/>
<path d="M36.784 103.576C30.3893 103.576 25.7547 105.365 22.88 108.944C20.064 112.464 18.656 117.304 18.656 123.464C18.656 126.456 19.008 129.184 19.712 131.648C20.416 134.053 21.472 136.136 22.88 137.896C24.288 139.656 26.048 141.035 28.16 142.032C30.272 142.971 32.736 143.44 35.552 143.44C37.0773 143.44 38.368 143.411 39.424 143.352C40.5387 143.293 41.5067 143.176 42.328 143V121.792H56.056V151.976C54.4133 152.621 51.7733 153.296 48.136 154C44.4987 154.763 40.0107 155.144 34.672 155.144C30.096 155.144 25.9307 154.44 22.176 153.032C18.48 151.624 15.312 149.571 12.672 146.872C10.032 144.173 7.97867 140.859 6.512 136.928C5.104 132.997 4.4 128.509 4.4 123.464C4.4 118.36 5.192 113.843 6.776 109.912C8.36 105.981 10.5307 102.667 13.288 99.968C16.0453 97.2107 19.272 95.128 22.968 93.72C26.7227 92.312 30.712 91.608 34.936 91.608C37.8107 91.608 40.392 91.8133 42.68 92.224C45.0267 92.576 47.0213 93.016 48.664 93.544C50.3653 94.0133 51.744 94.512 52.8 95.04C53.9147 95.568 54.7067 95.9787 55.176 96.272L51.216 107.272C49.3387 106.275 47.168 105.424 44.704 104.72C42.2987 103.957 39.6587 103.576 36.784 103.576ZM89.4623 118.096C91.9263 113.931 94.273 109.765 96.5023 105.6C98.7316 101.435 100.785 97.24 102.662 93.016H117.798C114.454 99.5867 110.993 105.952 107.414 112.112C103.836 118.272 100.052 124.461 96.0623 130.68V154H82.3343V130.856C78.345 124.637 74.5316 118.419 70.8943 112.2C67.3156 105.981 63.8543 99.5867 60.5103 93.016H76.4383C78.3156 97.24 80.3396 101.435 82.5103 105.6C84.681 109.765 86.9983 113.931 89.4623 118.096ZM140.193 93.016C141.249 94.952 142.452 97.3573 143.801 100.232C145.209 103.048 146.646 106.128 148.113 109.472C149.638 112.757 151.134 116.131 152.601 119.592C154.068 123.053 155.446 126.309 156.737 129.36C158.028 126.309 159.406 123.053 160.873 119.592C162.34 116.131 163.806 112.757 165.273 109.472C166.798 106.128 168.236 103.048 169.585 100.232C170.993 97.3573 172.225 94.952 173.281 93.016H185.777C186.364 97.064 186.892 101.611 187.361 106.656C187.889 111.643 188.329 116.864 188.681 122.32C189.092 127.717 189.444 133.144 189.737 138.6C190.089 144.056 190.382 149.189 190.617 154H177.241C177.065 148.075 176.83 141.621 176.537 134.64C176.244 127.659 175.804 120.619 175.217 113.52C174.161 115.984 172.988 118.712 171.697 121.704C170.406 124.696 169.116 127.688 167.825 130.68C166.593 133.672 165.39 136.547 164.217 139.304C163.044 142.003 162.046 144.32 161.225 146.256H151.633C150.812 144.32 149.814 142.003 148.641 139.304C147.468 136.547 146.236 133.672 144.945 130.68C143.713 127.688 142.452 124.696 141.161 121.704C139.87 118.712 138.697 115.984 137.641 113.52C137.054 120.619 136.614 127.659 136.321 134.64C136.028 141.621 135.793 148.075 135.617 154H122.241C122.476 149.189 122.74 144.056 123.033 138.6C123.385 133.144 123.737 127.717 124.089 122.32C124.5 116.864 124.94 111.643 125.409 106.656C125.937 101.611 126.494 97.064 127.081 93.016H140.193Z" fill="black"/>
<defs>
<clipPath id="clip0_2_6">
<rect width="86.2625" height="86.2625" fill="white" transform="translate(134.631 14.6161) rotate(99.7551)"/>
</clipPath>
</defs>
</svg>
